<svg viewBox="0 0 20 20" xmlns="http://www.w3.org/2000/svg" fill="white">
<path d="M18.4105 14.0677L16.3792 12.8949L18.1396 11.8569C18.4643 11.6654 18.5723 11.247 18.3809 10.9223C18.1893 10.5976 17.7711 10.4898 17.4462 10.6811L15.0214 12.111L13.5943 11.2871V8.71295L15.0206 7.8894L17.4463 9.31919C17.5551 9.38334 17.6744 9.41373 17.7923 9.41373C18.026 9.41373 18.2535 9.29361 18.3809 9.07767C18.5723 8.75299 18.4642 8.33457 18.1395 8.14311L16.3788 7.10526L18.4105 5.93218C18.7369 5.74372 18.8488 5.3263 18.6603 4.99989C18.4719 4.67347 18.0543 4.56163 17.728 4.75009L15.6965 5.92299L15.6782 3.87904C15.6748 3.50212 15.3659 3.197 14.9896 3.20273C14.6126 3.2061 14.3098 3.51441 14.3132 3.89133L14.3385 6.70695L12.9116 7.53077L10.6825 6.24367V4.59648L13.1336 3.21111C13.4617 3.02565 13.5774 2.60932 13.392 2.28109C13.2065 1.95294 12.79 1.83719 12.462 2.02274L10.6825 3.02856V0.682498C10.6825 0.305577 10.377 0 9.99996 0C9.62295 0 9.31747 0.305577 9.31747 0.682498V3.02856L7.53788 2.02283C7.20964 1.83719 6.79322 1.95304 6.60786 2.28118C6.4224 2.60932 6.53806 3.02574 6.86621 3.2112L9.31747 4.59658V6.24394L7.08843 7.53086L5.66137 6.70695L5.68667 3.89142C5.69004 3.5145 5.38728 3.20619 5.01027 3.20282C5.00808 3.20282 5.00608 3.20282 5.00408 3.20282C4.63007 3.20282 4.32504 3.50431 4.32167 3.87923L4.30329 5.92299L2.27209 4.75018C1.9454 4.56163 1.52807 4.67356 1.33979 4.99998C1.15133 5.32639 1.26317 5.74381 1.58959 5.93227L3.62134 7.10535L1.86031 8.1432C1.53553 8.33457 1.42743 8.75299 1.61889 9.07776C1.74611 9.29371 1.9737 9.41383 2.20748 9.41383C2.32523 9.41383 2.44462 9.38334 2.55337 9.31928L4.97933 7.88949L6.40584 8.71313V11.2871L4.9786 12.1112L2.55346 10.6812C2.22886 10.4897 1.81054 10.5977 1.61889 10.9224C1.42743 11.2471 1.53553 11.6655 1.86013 11.857L3.6207 12.895L1.58959 14.0677C1.26317 14.2562 1.15133 14.6736 1.33979 15C1.46628 15.219 1.6956 15.3414 1.93147 15.3414C2.04723 15.3414 2.16471 15.3118 2.27209 15.2498L4.30329 14.0771L4.32167 16.121C4.32504 16.4959 4.62998 16.7974 5.00408 16.7974C5.00608 16.7974 5.00827 16.7974 5.01027 16.7974C5.38719 16.794 5.69004 16.4857 5.68667 16.1088L5.66128 13.293L7.08834 12.469L9.31747 13.7561V15.4037L6.86621 16.7891C6.53815 16.9745 6.4224 17.3909 6.60786 17.7191C6.73335 17.9411 6.96458 18.0659 7.20263 18.0659C7.31638 18.0659 7.43177 18.0374 7.53788 17.9774L9.31747 16.9717V19.3176C9.31747 19.6945 9.62295 20.0001 9.99996 20.0001C10.377 20.0001 10.6825 19.6945 10.6825 19.3176V16.9717L12.4621 17.9774C12.5682 18.0374 12.6835 18.0659 12.7973 18.0659C13.0354 18.0659 13.2666 17.9411 13.3921 17.7191C13.5775 17.3909 13.4619 16.9745 13.1337 16.7891L10.6826 15.4037V13.7562L12.9118 12.469L14.3386 13.2928L14.3126 16.1085C14.3092 16.4854 14.6119 16.7938 14.9888 16.7973C14.9909 16.7974 14.9931 16.7974 14.9952 16.7974C15.3692 16.7974 15.6742 16.4959 15.6776 16.1211L15.6965 14.0767L17.7281 15.2497C17.8357 15.3118 17.953 15.3413 18.0687 15.3413C18.3046 15.3413 18.534 15.2188 18.6604 14.9999C18.8488 14.6736 18.7368 14.2562 18.4105 14.0677ZM7.77083 8.71304L10.0001 7.42585L12.2293 8.71304V11.287L10.0001 12.5742L7.77083 11.287V8.71304Z" />
</svg>
