<svg viewBox="0 0 20 20" xmlns="http://www.w3.org/2000/svg" fill="white">
<path d="M3.85565 5.93558C5.01979 5.93558 6.12482 5.46177 6.92847 4.65406C7.73222 5.46188 8.83715 5.93558 10.0013 5.93558C11.1656 5.93558 12.2705 5.46198 13.0737 4.65437C13.8773 5.46198 14.9822 5.93558 16.1465 5.93558C17.6871 5.93558 19.1237 5.10598 19.8959 3.77066C20.112 3.39683 19.9842 2.91854 19.6104 2.70243C19.2365 2.48653 18.7582 2.61413 18.5421 2.98797C18.0487 3.84155 17.1307 4.37186 16.1466 4.37186C15.1623 4.37186 14.2441 3.84155 13.7507 2.98797C13.6109 2.74632 13.3529 2.59735 13.0737 2.59745C12.7944 2.59745 12.5365 2.74643 12.3968 2.98818C11.9037 3.84176 10.9859 4.37186 10.0015 4.37186C9.0175 4.37186 8.09928 3.84145 7.60515 2.98766C7.46535 2.74611 7.20744 2.59735 6.92847 2.59735H6.92826C6.64919 2.59735 6.39128 2.74622 6.25159 2.98786C5.75818 3.84145 4.84017 4.37176 3.85597 4.37176C2.87166 4.37176 1.95344 3.84145 1.46003 2.98786C1.24393 2.61413 0.765636 2.48612 0.391802 2.70233C0.0179684 2.91843 -0.109944 3.39672 0.106267 3.77056C0.878015 5.10598 2.31476 5.93558 3.85565 5.93558Z"/>
<path d="M19.6094 8.43598C19.2356 8.22008 18.7573 8.34757 18.5412 8.72151C18.0477 9.5751 17.1297 10.1054 16.1456 10.1054C15.1613 10.1054 14.2431 9.5751 13.7497 8.72151C13.6099 8.47986 13.3519 8.33089 13.0727 8.331C12.7934 8.331 12.5355 8.47997 12.3958 8.72172C11.9027 9.5753 10.9849 10.1054 10.0005 10.1054C9.01653 10.1054 8.09831 9.57499 7.60418 8.7212C7.46438 8.47966 7.20647 8.33089 6.9275 8.33089H6.92729C6.64822 8.33089 6.39031 8.47976 6.25062 8.72141C5.75721 9.57499 4.8392 10.1053 3.855 10.1053C2.87069 10.1053 1.95247 9.57499 1.45906 8.72141C1.24296 8.34757 0.764667 8.21966 0.390833 8.43587C0.0169995 8.65198 -0.110913 9.13027 0.105298 9.5041C0.877359 10.8395 2.31411 11.6691 3.8551 11.6691C5.01924 11.6691 6.12427 11.1953 6.92792 10.3876C7.73167 11.1954 8.8366 11.6691 10.0007 11.6691C11.1651 11.6691 12.2699 11.1955 13.0731 10.3879C13.8768 11.1955 14.9816 11.6691 16.146 11.6691C17.6865 11.6691 19.1232 10.8396 19.8953 9.5041C20.111 9.13037 19.9832 8.65208 19.6094 8.43598Z"/>
<path d="M19.6094 14.1696C19.2356 13.9536 18.7573 14.0812 18.5412 14.4552C18.0477 15.3087 17.1297 15.8391 16.1456 15.8391C15.1613 15.8391 14.2431 15.3087 13.7497 14.4552C13.6099 14.2135 13.3519 14.0645 13.0727 14.0647C12.7934 14.0647 12.5355 14.2136 12.3958 14.4554C11.9027 15.309 10.9849 15.8391 10.0005 15.8391C9.01653 15.8391 8.09831 15.3086 7.60418 14.4549C7.46438 14.2133 7.20647 14.0646 6.9275 14.0646H6.92729C6.64822 14.0646 6.39031 14.2134 6.25062 14.4551C5.75721 15.3086 4.8392 15.839 3.855 15.839C2.87069 15.839 1.95247 15.3086 1.45906 14.4551C1.24296 14.0812 0.764667 13.9534 0.390833 14.1695C0.0169995 14.3856 -0.110913 14.8639 0.105298 15.2378C0.877359 16.5732 2.31411 17.4028 3.8551 17.4028C5.01924 17.4028 6.12427 16.929 6.92792 16.1213C7.73167 16.9291 8.8366 17.4028 10.0007 17.4028C11.1651 17.4028 12.2699 16.9292 13.0731 16.1216C13.8768 16.9292 14.9816 17.4028 16.146 17.4028C17.6865 17.4028 19.1232 16.5732 19.8953 15.2378C20.111 14.864 19.9832 14.3857 19.6094 14.1696Z"/>
</svg>
