<svg viewBox="0 0 20 20" xmlns="http://www.w3.org/2000/svg" fill="white">
<path d="M19.7238 12.6429C19.4521 12.3713 19.0427 12.2916 18.6891 12.4414C17.6374 12.8868 16.5222 13.1127 15.3743 13.1127C13.1074 13.1127 10.9764 12.23 9.37355 10.6271C6.91574 8.1694 6.20367 4.51287 7.55941 1.31174C7.70922 0.95795 7.62945 0.548693 7.35777 0.277091C7.08617 0.00541137 6.67676 -0.0741589 6.32312 0.0756457C5.09285 0.596857 3.98766 1.34256 3.03824 2.29205C1.07875 4.25147 -0.000234337 6.85658 3.81748e-08 9.62756C0.000234413 12.3981 1.0793 15.0029 3.03848 16.9622C4.99797 18.9217 7.60324 20.0009 10.3742 20.0009C13.1448 20.0009 15.7496 18.9219 17.7089 16.9626C18.6584 16.0131 19.4041 14.9079 19.9253 13.6778C20.0751 13.324 19.9954 12.9147 19.7238 12.6429Z"/>
</svg>
