<svg viewBox="0 0 20 20" xmlns="http://www.w3.org/2000/svg" fill="white">
<path d="M11.3368 16.825H8.60742C8.36172 16.825 8.1618 17.0249 8.1618 17.2706V19.5544C8.1618 19.8001 8.36172 20 8.60742 20H11.3368C11.5825 20 11.7825 19.8001 11.7825 19.5544V17.2706C11.7825 17.0249 11.5825 16.825 11.3368 16.825Z"/>
<path d="M17.1611 14.8127L14.3206 10.5863H15.2523C15.4145 10.5863 15.5514 10.5098 15.6185 10.3816C15.686 10.2527 15.6705 10.0953 15.5772 9.96059L12.6543 5.74019H13.6977C13.8486 5.74019 13.9749 5.66878 14.0354 5.54913C14.0959 5.42992 14.0791 5.28671 13.9905 5.1659L10.3234 0.168945C10.2447 0.0615511 10.127 0 10.0006 0C9.87387 0 9.75578 0.0618854 9.67668 0.169725L6.00946 5.16551C5.92089 5.28627 5.90412 5.42965 5.96456 5.54896C6.02528 5.66867 6.1515 5.74013 6.30228 5.74013H7.34537L4.42288 9.96115C4.32953 10.0958 4.31404 10.2531 4.38144 10.3818C4.44845 10.5098 4.58537 10.5862 4.74768 10.5862H5.6792L2.83893 14.8138C2.7395 14.9617 2.72391 15.1322 2.79727 15.27C2.86996 15.4065 3.01796 15.488 3.19309 15.488H16.8069C16.9818 15.488 17.1297 15.4064 17.2026 15.2697C17.2762 15.1316 17.2607 14.9607 17.1611 14.8127Z"/>
</svg>
