<svg viewBox="0 0 20 20" xmlns="http://www.w3.org/2000/svg" fill="white">
<path d="M16.6529 18.7879C16.9836 18.7879 17.3026 18.6068 17.4633 18.292L18.0823 17.0799C18.3106 16.6327 18.1332 16.0852 17.686 15.8568C17.2391 15.6285 16.6914 15.8059 16.4629 16.253L15.844 17.4651C15.6157 17.9123 15.793 18.4599 16.2402 18.6882C16.3726 18.7559 16.5139 18.7879 16.6529 18.7879Z"/>
<path d="M12.011 19.9999C12.3417 19.9999 12.6606 19.8189 12.8213 19.5041L13.4402 18.292C13.6686 17.8448 13.4911 17.2973 13.044 17.0689C12.5969 16.8406 12.0493 17.018 11.8209 17.4651L11.202 18.6772C10.9736 19.1244 11.1511 19.6719 11.5982 19.9003C11.7307 19.9679 11.8718 19.9999 12.011 19.9999Z"/>
<path d="M3.75969 17.069C3.31273 16.8407 2.76504 17.018 2.53661 17.4651L1.91765 18.6772C1.68929 19.1244 1.86668 19.672 2.31389 19.9004C2.44631 19.968 2.58746 20.0001 2.72661 20.0001C3.05727 20.0001 3.37624 19.8189 3.53697 19.5042L4.15593 18.2921C4.38429 17.8448 4.2069 17.2973 3.75969 17.069Z"/>
<path d="M7.36877 18.7879C7.69943 18.7879 8.0184 18.6068 8.17912 18.292L8.79809 17.0799C9.02645 16.6327 8.84906 16.0852 8.40185 15.8568C7.95482 15.6285 7.40719 15.8059 7.17877 16.253L6.55981 17.4651C6.33151 17.9123 6.50884 18.4599 6.95605 18.6882C7.08847 18.7559 7.22962 18.7879 7.36877 18.7879Z"/>
<path d="M14.8492 3.6339H14.7482C13.8893 1.46271 11.78 0 9.39477 0C6.3082 0 3.7812 2.44124 3.6432 5.49436C1.58699 5.7866 0.000946045 7.55876 0.000946045 9.69443C0.000946045 12.0337 1.90401 13.9368 4.24332 13.9368H14.8492C17.6898 13.9368 20.0007 11.6259 20.0007 8.78535C20.0007 5.94484 17.6898 3.6339 14.8492 3.6339Z"/>
</svg>
