<svg viewBox="0 0 20 20" xmlns="http://www.w3.org/2000/svg" fill="white">
<path d="M10 15.1515C12.8407 15.1515 15.1518 12.8405 15.1518 10.0001C15.1518 7.15945 12.8407 4.84848 10 4.84848C7.15957 4.84848 4.84872 7.15945 4.84872 10.0001C4.84872 12.8405 7.15957 15.1515 10 15.1515Z"/>
<path d="M10 3.0303C10.502 3.0303 10.9091 2.62327 10.9091 2.12121V0.909091C10.9091 0.40703 10.502 0 10 0C9.49788 0 9.09091 0.40703 9.09091 0.909091V2.12121C9.09091 2.62327 9.49788 3.0303 10 3.0303Z"/>
<path d="M10 20C10.502 20 10.9091 19.593 10.9091 19.0909V17.8788C10.9091 17.3767 10.502 16.9697 10 16.9697C9.49788 16.9697 9.09091 17.3767 9.09091 17.8788V19.0909C9.09091 19.593 9.49788 20 10 20Z"/>
<path d="M16.9697 10C16.9697 10.5021 17.3768 10.9091 17.8788 10.9091H19.0909C19.5929 10.9091 20 10.5021 20 10C20 9.49794 19.5929 9.09091 19.0909 9.09091H17.8788C17.3768 9.09091 16.9697 9.49794 16.9697 10Z"/>
<path d="M0.909091 10.9091H2.12109C2.62321 10.9091 3.03018 10.5021 3.03018 10C3.03018 9.49794 2.62321 9.09091 2.12109 9.09091H0.909091C0.407091 9.09091 0 9.49794 0 10C0 10.5021 0.407091 10.9091 0.909091 10.9091Z"/>
<path d="M15.5711 5.33795C15.8039 5.33795 16.0366 5.24916 16.214 5.07159L17.071 4.21444C17.426 3.85941 17.426 3.28383 17.071 2.9288C16.7159 2.57377 16.1403 2.57383 15.7853 2.92892L14.9282 3.78607C14.5733 4.14104 14.5733 4.71674 14.9284 5.07171C15.1059 5.24922 15.3385 5.33795 15.5711 5.33795Z"/>
<path d="M4.2146 17.071L5.07163 16.2139C5.42666 15.8589 5.42666 15.2833 5.07163 14.9283C4.71666 14.5733 4.14102 14.5733 3.78599 14.9283L2.92896 15.7854C2.57393 16.1404 2.57393 16.716 2.92896 17.071C3.10642 17.2486 3.33914 17.3373 3.57175 17.3373C3.80442 17.3373 4.03702 17.2486 4.2146 17.071Z"/>
<path d="M16.4281 17.3373C16.6608 17.3373 16.8934 17.2486 17.071 17.071C17.4259 16.7161 17.4259 16.1405 17.071 15.7854L16.2139 14.9283C15.859 14.5733 15.2833 14.5733 14.9283 14.9282C14.5733 15.2832 14.5732 15.8589 14.9282 16.2139L15.7853 17.071C15.9628 17.2486 16.1955 17.3373 16.4281 17.3373Z"/>
<path d="M3.78593 5.0717C3.96345 5.24921 4.19611 5.338 4.42872 5.338C4.66138 5.338 4.89405 5.24921 5.07157 5.07176C5.42654 4.71679 5.42654 4.14115 5.07157 3.78606L4.2146 2.92897C3.85963 2.574 3.28393 2.57394 2.92896 2.92897C2.57393 3.28394 2.57387 3.85952 2.9289 4.21461L3.78593 5.0717Z"/>
</svg>
