<svg viewBox="0 0 21 21" xmlns="http://www.w3.org/2000/svg" fill="white">
<path d="M16.1344 8.48337C13.9113 8.48337 12.1028 10.2918 12.1028 12.5148C12.1028 14.3698 13.6119 15.879 15.4668 15.879C15.8504 15.879 16.1615 15.568 16.1615 15.1842C16.1615 14.8005 15.8504 14.4895 15.4668 14.4895C14.378 14.4895 13.4922 13.6037 13.4922 12.5148C13.4922 11.058 14.6774 9.87284 16.1344 9.87284C18.0512 9.87284 19.6105 11.4322 19.6105 13.3488C19.6105 15.8407 17.5833 17.868 15.0915 17.868H0.694735C0.311056 17.868 0 18.179 0 18.5628C0 18.9465 0.311056 19.2575 0.694735 19.2575H15.0915C18.3494 19.2575 21 16.6069 21 13.3488C21 10.666 18.8173 8.48337 16.1344 8.48337Z"/>
<path d="M0.694735 14.0401H7.16865C9.34864 14.0401 11.1222 12.2666 11.1222 10.0866C11.1222 8.26624 9.64108 6.78516 7.8205 6.78516C6.28745 6.78516 5.04026 8.03235 5.04026 9.5654C5.04026 10.8683 6.10033 11.9284 7.40329 11.9284C7.78697 11.9284 8.09802 11.6175 8.09802 11.2337C8.09802 10.8499 7.78697 10.539 7.40329 10.539C6.86649 10.539 6.42973 10.1022 6.42973 9.5654C6.42973 8.79859 7.0536 8.17463 7.8205 8.17463C8.87483 8.17463 9.73269 9.03239 9.73269 10.0866C9.73269 11.5005 8.58248 12.6507 7.16865 12.6507H0.694735C0.311056 12.6507 0 12.9616 0 13.3454C0 13.7292 0.311056 14.0401 0.694735 14.0401Z"/>
<path d="M12.0793 7.34577H16.9349C18.6145 7.34577 19.981 5.97927 19.981 4.29958C19.981 2.88955 18.8338 1.74249 17.4238 1.74249C16.2293 1.74249 15.2576 2.7142 15.2576 3.90868C15.2576 4.93059 16.089 5.76205 17.1108 5.76205C17.4433 5.76205 17.7129 5.49249 17.7129 5.15994C17.7129 4.8274 17.4433 4.55784 17.1108 4.55784C16.7529 4.55784 16.4618 4.26661 16.4618 3.90868C16.4618 3.37818 16.8934 2.9467 17.4238 2.9467C18.1699 2.9467 18.7768 3.55362 18.7768 4.29958C18.7768 5.31529 17.9506 6.14156 16.9349 6.14156H12.0793C11.7468 6.14156 11.4772 6.41112 11.4772 6.74366C11.4772 7.07621 11.7469 7.34577 12.0793 7.34577Z"/>
</svg>
